<?xml version="1.0" standalone="no"?><!DOCTYPE svg PUBLIC "-//W3C//DTD SVG 1.1//EN" "http://www.w3.org/Graphics/SVG/1.1/DTD/svg11.dtd"><svg t="1491881356009" class="icon" style="" viewBox="0 0 1024 1024" version="1.1" xmlns="http://www.w3.org/2000/svg" p-id="2369" xmlns:xlink="http://www.w3.org/1999/xlink" width="200" height="200"><defs><style type="text/css"></style></defs><path d="M506.054591 79.043241c238.760872 0 432.956759 194.253192 432.956759 432.956759S744.815463 944.956759 506.054591 944.956759c-238.703567 0-432.956759-194.195887-432.956759-432.956759 0-238.703567 194.253192-432.956759 432.956759-432.956759z m0-57.727773c-270.973528 0-490.684532 219.653699-490.684532 490.684532s219.711004 490.684532 490.684532 490.684532c271.030833 0 490.684532-219.653699 490.684532-490.684532S777.085424 21.315468 506.054591 21.315468z m-41.159422 722.171744c0 22.731724 18.427698 41.159422 41.159422 41.159422s41.159422-18.427698 41.159422-41.159422-18.427698-41.159422-41.159422-41.159422-41.159422 18.427698-41.159422 41.159422z m35.155685-92.65219c-15.932878 0-28.863375-12.930497-28.863375-28.863375 0-113.607454 100.792591-161.348782 101.254102-161.579025 24.707728-19.685341 39.023782-41.044812 35.675524-72.15946-2.366907-22.51376-27.247574-50.338479-61.24897-57.554834-35.386952-8.082072-79.894631 3.694135-102.466719 23.552416-29.151947 25.573445-30.364565 64.539922-30.364565 64.943104-0.345877 15.70161-13.161764 28.344558-28.863375 28.344559h-0.404206c-15.817244-0.231267-28.574802-13.104459-28.459168-28.979009 0-2.598174 0.981351-64.020082 49.184189-107.026572 35.906791-32.097022 93.345991-51.204196 158.923546-36.022424 113.954355 38.042431 105.756649 120.131031 96.867188 150.43829-8.486278 29.037337-23.49511 63.442938-66.271356 87.226621l0.115633 0.288572c-2.539846 1.212618-66.155722 32.4429-66.155722 108.470457-0.059352 16.047488-12.989849 28.92068-28.922726 28.92068z" fill="#999999" p-id="2370"></path></svg>