<?xml version="1.0" standalone="no"?><!DOCTYPE svg PUBLIC "-//W3C//DTD SVG 1.1//EN" "http://www.w3.org/Graphics/SVG/1.1/DTD/svg11.dtd"><svg t="1491561842059" class="icon" style="" viewBox="0 0 1024 1024" version="1.1" xmlns="http://www.w3.org/2000/svg" p-id="2399" xmlns:xlink="http://www.w3.org/1999/xlink" width="200" height="200"><defs><style type="text/css"></style></defs><path d="M213.400275 605.284593c4.538363 0 9.075703-1.64036 12.667507-4.946662l230.820016-213.006302L630.973672 526.56574c3.936659 3.142573 8.967232 4.581342 13.907755 3.954055 4.975315-0.601704 9.494235-3.169179 12.555967-7.142677L844.062861 280.839223c6.26775-8.1711 4.756327-19.888979-3.427052-26.165939-8.163937-6.294356-19.86442-4.744048-26.172079 3.409656L639.45074 485.554698l-171.772178-137.377834c-7.219425-5.747911-17.533328-5.402033-24.330128 0.857531L200.732767 572.914348c-7.562233 6.990205-8.037047 18.795065-1.036609 26.364461C203.357548 603.261517 208.369701 605.284593 213.400275 605.284593zM810.599725 474.685139l37.326117 0 0 335.822488-37.326117 0L810.599725 474.685139zM773.275655 456.027198l0 373.137349c0 10.311857 8.348132 18.657942 18.662035 18.657942l74.649164 0c10.31595 0 18.664082-8.346085 18.664082-18.657942L885.250936 456.027198c0-10.302647-8.348132-18.654872-18.664082-18.654872l-74.649164 0C781.623787 437.372326 773.275655 445.724551 773.275655 456.027198zM661.300374 810.507628 623.975281 810.507628 623.975281 661.252279l37.326117 0L661.301398 810.507628zM605.313246 623.940488c-10.31595 0-18.662035 8.354272-18.662035 18.656919l0 186.568163c0 10.311857 8.346085 18.657942 18.662035 18.657942l74.649164 0c10.31595 0 18.664082-8.346085 18.664082-18.657942L698.626491 642.597407c0-10.302647-8.348132-18.656919-18.664082-18.656919L605.313246 623.940488zM288.049438 810.507628l-37.32407 0L250.725368 661.252279l37.32407 0L288.049438 810.507628zM232.061286 623.940488c-10.313903 0-18.662035 8.354272-18.662035 18.656919l0 186.568163c0 10.311857 8.348132 18.657942 18.662035 18.657942l74.65121 0c10.313903 0 18.662035-8.346085 18.662035-18.657942L325.374532 642.597407c0-10.302647-8.348132-18.656919-18.662035-18.656919L232.061286 623.940488zM474.673883 810.507628l-37.32407 0L437.349813 512l37.32407 0L474.673883 810.507628zM418.688801 474.685139c-10.31595 0-18.664082 8.354272-18.664082 18.656919l0 335.822488c0 10.311857 8.348132 18.657942 18.664082 18.657942l74.649164 0c10.31595 0 18.662035-8.346085 18.662035-18.657942L512 493.342058c0-10.302647-8.346085-18.656919-18.662035-18.656919L418.688801 474.685139zM959.901123 885.137349 138.750087 885.137349 138.750087 64.237023l-37.326117 0 0 820.901349L64.098877 885.138372l0 37.312814 37.326117 0 0 37.312814 37.326117 0 0-37.312814 821.150012 0L959.901123 885.137349z" p-id="2400" fill="#8a8a8a"></path></svg>