<?xml version="1.0" standalone="no"?><!DOCTYPE svg PUBLIC "-//W3C//DTD SVG 1.1//EN" "http://www.w3.org/Graphics/SVG/1.1/DTD/svg11.dtd"><svg t="1491801293093" class="icon" style="" viewBox="0 0 1024 1024" version="1.1" xmlns="http://www.w3.org/2000/svg" p-id="24543" xmlns:xlink="http://www.w3.org/1999/xlink" width="128" height="128"><defs><style type="text/css"></style></defs><path d="M790.81103 120.123868l-56.047504 0L734.763526 64.132646l-55.989175 0 0 55.991222L342.837252 120.123868 342.837252 64.132646l-55.989175 0 0 55.991222L230.800573 120.123868c-61.555961 0-111.921046 50.365084-111.921046 111.918999l0 616.003725c0 61.554938 50.364061 111.918999 111.921046 111.918999l560.010457 0c61.555961 0 111.921046-50.364061 111.921046-111.918999L902.732076 232.042867C902.732076 170.488952 852.366991 120.123868 790.81103 120.123868zM230.800573 176.114067l56.047504 0 0 55.987129 55.989175 0L342.837252 176.114067l335.937099 0 0 55.987129 55.989175 0L734.763526 176.114067l56.047504 0c30.841426 0 55.93187 25.090445 55.93187 55.929824L846.7429 344.079546 174.868703 344.079546 174.868703 232.042867C174.868703 201.203488 199.959148 176.114067 230.800573 176.114067zM790.81103 903.976416 230.800573 903.976416c-30.841426 0-55.93187-25.090445-55.93187-55.929824L174.868703 400.069745l671.873174 0 0 447.977871C846.7429 878.886995 821.652456 903.976416 790.81103 903.976416z" p-id="24544" fill="#8a8a8a"></path><path d="M286.848077 512.048095l447.915449 0 0 55.989175-447.915449 0 0-55.989175Z" p-id="24545" fill="#8a8a8a"></path><path d="M286.848077 681.766498l447.915449 0 0 55.989175-447.915449 0 0-55.989175Z" p-id="24546" fill="#8a8a8a"></path></svg>