<?xml version="1.0" standalone="no"?><!DOCTYPE svg PUBLIC "-//W3C//DTD SVG 1.1//EN" "http://www.w3.org/Graphics/SVG/1.1/DTD/svg11.dtd"><svg t="1492149963659" class="icon" style="" viewBox="0 0 1024 1024" version="1.1" xmlns="http://www.w3.org/2000/svg" p-id="26507" xmlns:xlink="http://www.w3.org/1999/xlink" width="128" height="128"><defs><style type="text/css"></style></defs><path d="M997.019509 369.907795C956.490443 220.907249 800.585651 65.002456 651.585105 24.472368 262.339894-81.405031-83.912132 264.846994 21.966291 654.092205c40.529065 149.000546 196.433858 304.905338 345.435427 345.435427C756.645906 1105.404008 1102.897931 759.151983 997.019509 369.907795zM441.036785 586.314543l-3.197832-1.484817-3.275603 1.303692c-84.550675 33.647331-141.474129 111.068631-148.621922 202.107067-0.719384 4.592598-0.719384 4.697999-0.719384 5.40408 0 6.293333-6.051833 10.860349-14.389732 10.860349-4.599761 0-8.225335-1.199315-10.485819-3.467985-1.852184-1.860371-2.805906-4.450359-2.833535-7.699356l0.227174-3.597945c6.040576-90.213651 59.875692-172.944887 140.496871-215.908398l10.768251-5.737678-9.392928-7.78736c-44.416606-36.824697-69.89079-90.671069-69.89079-147.731646 0-106.463754 87.796602-193.077414 195.71345-193.077414 107.905592 0 195.694007 86.614683 195.694007 193.077414 0 58.623165-26.536376 113.202225-72.904427 150.138462-1.098008 0.874927-2.25639 1.674129-3.452635 2.408863l-33.031301 20.287045c-1.170662 0.719384-2.38021 1.37737-3.62762 1.952468-26.377764 12.151761-54.188156 18.311041-82.70156 18.311041C490.128877 605.670379 460.053907 595.143629 441.036785 586.314543zM717.321272 676.694993 717.321272 676.694993c-1.014096 0-1.99954-0.11461-2.946099-0.333598-0.315178-0.072655-0.626263-0.157589-0.932232-0.252757 0.305969 0.095167 0.617054 0.180102 0.932232 0.252757C715.321732 676.580383 716.307176 676.694993 717.321272 676.694993zM760.037143 721.376635l-68.701708 0 0 73.602322c0 4.198625-7.707542 9.524934-16.370853 9.524934-8.66331 0-16.371876-5.326309-16.371876-9.524934l0-73.602322-70.857814 0c-5.607718 0-9.524934-5.048993-9.524934-12.277628 0-7.229658 3.917216-12.279674 9.524934-12.279674l70.857814 0 0-74.142627c0-4.198625 7.708566-9.524934 16.371876-9.524934 8.66331 0 16.370853 5.326309 16.370853 9.524934l0 74.142627 68.701708 0c5.608741 0 9.524934 5.048993 9.524934 12.279674C769.562077 716.327642 765.644861 721.376635 760.037143 721.376635z" p-id="26508" fill="#fc7f22"></path><path d="M717.321272 676.694993c-1.014096 0-1.99954-0.11461-2.946099-0.333598C715.321732 676.580383 716.307176 676.694993 717.321272 676.694993L717.321272 676.694993z" p-id="26509" fill="#fc7f22"></path><path d="M714.375174 717.557656c0.946558-0.218988 1.932002-0.334621 2.946099-0.334621l-0.001023 0C716.307176 717.223035 715.321732 717.338668 714.375174 717.557656z" p-id="26510" fill="#fc7f22"></path><path d="M689.276543 415.429571c0-88.756463-73.134671-160.965042-163.030074-160.965042S363.215372 326.673108 363.215372 415.429571s73.134671 160.965042 163.030074 160.965042S689.276543 504.186034 689.276543 415.429571z" p-id="26511" fill="#fc7f22"></path></svg>