<?xml version="1.0" standalone="no"?><!DOCTYPE svg PUBLIC "-//W3C//DTD SVG 1.1//EN" "http://www.w3.org/Graphics/SVG/1.1/DTD/svg11.dtd"><svg t="1492149686538" class="icon" style="" viewBox="0 0 1024 1024" version="1.1" xmlns="http://www.w3.org/2000/svg" p-id="17841" xmlns:xlink="http://www.w3.org/1999/xlink" width="128" height="128"><defs><style type="text/css"></style></defs><path d="M958.71488 0H65.28512C29.29664 0 0 29.29664 0 65.28512v893.20448c0 36.21888 29.29664 65.28512 65.28512 65.28512h893.20448c36.21888 0 65.28512-29.29664 65.28512-65.28512V65.28512C1024 29.29664 994.70336 0 958.71488 0z m-446.59712 969.78944c-252.8256 0-457.6768-204.84608-457.6768-457.6768s204.84608-457.6768 457.6768-457.6768 457.6768 204.84608 457.6768 457.6768c-0.00512 252.60032-205.0816 457.6768-457.6768 457.6768z" p-id="17842" fill="#fc7f22"></path><path d="M287.2064 305.19808c0-24.44288 12.48768-35.33312 40.59136-35.33312 50.7648 0 103.59296 52.86912 137.14944 97.77664 6.79936 9.09824 17.3824 14.592 28.74368 14.592h43.53536c11.51488 0 22.4512-5.33504 29.29664-14.592 33.21344-44.90752 84.25984-97.77664 135.08096-97.77664 28.03712 0 40.59136 11.60192 40.59136 36.03968 0 49.60256-56.30464 76.32896-109.21472 76.32896h105.63584c11.26912 0 22.05184-5.1456 28.74368-14.21312 12.65152-17.152 20.224-37.9136 20.224-62.11584 0-38.67648-22.59456-80.6912-85.98016-80.6912-64.41472 0-120.6272 52.08064-157.98272 98.37056-14.35136 17.78688-41.3696 17.8944-55.84384 0.2048-37.92384-46.34112-95.51872-98.57536-159.97952-98.57536-63.3856 0-86.01088 42.01472-86.01088 80.6912 0 24.3456 7.86432 45.2096 20.93568 62.41792 6.7328 8.86784 17.3824 13.91104 28.5184 13.91104h107.264c-52.9152 0-111.29856-27.42784-111.29856-77.03552zM278.51776 806.51776h177.12128a36.06016 36.06016 0 0 0 36.06016-36.06016v-218.50112a36.06016 36.06016 0 0 0-36.06016-36.06016H278.51776a36.06016 36.06016 0 0 0-36.06016 36.06016v218.50112a36.06016 36.06016 0 0 0 36.06016 36.06016zM573.1584 806.51776h177.73056a36.06016 36.06016 0 0 0 36.06016-36.06016v-218.50112a36.06016 36.06016 0 0 0-36.06016-36.06016h-177.73056a36.06016 36.06016 0 0 0-36.06016 36.06016v218.50112a36.05504 36.05504 0 0 0 36.06016 36.06016z" p-id="17843" fill="#fc7f22"></path><path d="M796.1088 382.2336h-222.95552a36.06016 36.06016 0 0 0-36.06016 36.06016v16.88064a36.06016 36.06016 0 0 0 36.06016 36.06016h222.95552a36.06016 36.06016 0 0 0 36.06016-36.06016v-16.88064a36.05504 36.05504 0 0 0-36.06016-36.06016zM232.68352 471.23968h222.95552a36.06016 36.06016 0 0 0 36.06016-36.06016v-16.88064a36.06016 36.06016 0 0 0-36.06016-36.06016H232.68352a36.06016 36.06016 0 0 0-36.06016 36.06016v16.88064a36.06016 36.06016 0 0 0 36.06016 36.06016z" p-id="17844" fill="#fc7f22"></path></svg>