<?xml version="1.0" standalone="no"?><!DOCTYPE svg PUBLIC "-//W3C//DTD SVG 1.1//EN" "http://www.w3.org/Graphics/SVG/1.1/DTD/svg11.dtd"><svg t="1492149875332" class="icon" style="" viewBox="0 0 1024 1024" version="1.1" xmlns="http://www.w3.org/2000/svg" p-id="21388" xmlns:xlink="http://www.w3.org/1999/xlink" width="128" height="128"><defs><style type="text/css"></style></defs><path d="M540.16 550.68672c0 25.45664 20.64384 46.08 46.08 46.08l122.88 0 0-92.16-122.88 0C560.80384 504.60672 540.16 525.23008 540.16 550.68672zM619.52 535.53152c8.47872 0 15.36 6.88128 15.36 15.36s-6.88128 15.36-15.36 15.36l-30.72 0c-8.47872 0-15.36-6.88128-15.36-15.36s6.88128-15.36 15.36-15.36L619.52 535.53152z" p-id="21389" fill="#fc7f22"></path><path d="M512 20.48C240.5376 20.48 20.48 240.5376 20.48 512s220.0576 491.52 491.52 491.52 491.52-220.0576 491.52-491.52S783.4624 20.48 512 20.48zM652.20608 314.38848c11.32544 0 20.48 9.15456 20.48 20.48l0 42.92608L310.35392 377.79456C310.35392 377.77408 638.73024 314.38848 652.20608 314.38848zM737.28 668.65152c0 22.60992-18.35008 40.96-40.96 40.96L327.68 709.61152c-22.60992 0-40.96-18.35008-40.96-40.96l0-235.52c0-22.6304 18.35008-40.96 40.96-40.96l368.64 0c22.60992 0 40.96 18.3296 40.96 40.96L737.28 668.65152z" p-id="21390" fill="#fc7f22"></path></svg>